<?xml version="1.0" standalone="no"?>
<!DOCTYPE svg PUBLIC "-//W3C//DTD SVG 20010904//EN"
 "http://www.w3.org/TR/2001/REC-SVG-20010904/DTD/svg10.dtd">
<svg version="1.0" xmlns="http://www.w3.org/2000/svg"
 width="1024.000000pt" height="1024.000000pt" viewBox="0 0 1024.000000 1024.000000"
 preserveAspectRatio="xMidYMid meet">
<metadata>
Created by potrace 1.16, written by Peter Selinger 2001-2019
</metadata>
<g transform="translate(0.000000,1024.000000) scale(0.100000,-0.100000)"
fill="#000000" stroke="none">
<path d="M0 5120 l0 -5120 5120 0 5120 0 0 5120 0 5120 -5120 0 -5120 0 0
-5120z m5115 2702 c492 -38 872 -120 1228 -268 575 -239 1017 -644 1257 -1150
81 -172 98 -215 137 -339 61 -197 89 -335 118 -567 18 -149 21 -597 4 -728
-42 -343 -96 -558 -202 -815 -40 -97 -49 -117 -125 -255 -162 -297 -437 -587
-752 -792 -440 -288 -1046 -466 -1678 -494 -84 -4 -155 -11 -158 -15 -3 -5
-588 -9 -1300 -9 l-1294 0 0 2725 0 2725 1308 -3 c856 -2 1359 -7 1457 -15z"/>
<path d="M4283 6243 c-10 -4 -13 -239 -13 -1128 l0 -1124 36 -7 c66 -12 642 3
729 20 232 44 412 134 563 280 149 144 243 322 294 556 29 129 31 414 4 540
-100 480 -416 779 -902 854 -76 12 -176 16 -400 15 -165 0 -305 -3 -311 -6z"/>
</g>
</svg>
